# xmcd
#
# Track frame offsets:
#	150
#	17438
#	32469
#	51853
#	69293
#	84841
#	105369
#	123786
#	141574
#	163370
#	182681
#	200859
#	218672
#	239465
#	259020
#	276313
#	290388
#
# Disc length: 4118
#
# Revision: 3
# Processed by: cddbd v1.5.1PL0 Copyright (c) Steve Scherf et al.
# Submitted via: EasyCDDAExtractor 5.1.0
# Normalized: r2:DSETVAR1
#
DISCID=f1101411
DTITLE=Various Artist - privilege\\2002 cd1
DYEAR=2002
DGENRE=House
TTITLE0=ralf gum feat. mireilla - ponle tumbao (original latin flavour mix)
TTITLE1=the cat and mr cool feat. linda john pierre - Night people
TTITLE2=r. rivera's grooves - funk·a·tron (drp that funk)
TTITLE3=brio from rio - just for me (le az mix)
TTITLE4=the product g&b feat. carlos santana - dirty dancin (robbie rivera's tribal sessions vocal mix)
TTITLE5=modjo - on fire (armand van helden remix)
TTITLE6=hot coffee presents pink coffee - another brick in the wall (radio edit)
TTITLE7=galleon - i believe (radio edit)
TTITLE8=sergi vila feat. lady puk - it's all right (radio edit)
TTITLE9=feela - sweet temptation (original vocal mix)
TTITLE10=kim english - everyday (hex hector and marc quayle club mix)
TTITLE11=sophie ellis-bextor - murder on the dancefloor (twin murder club mix)
TTITLE12=4.fx - mammagamma (gambafreaks mix)
TTITLE13=lil* devious - so good
TTITLE14=room 5 - make luv
TTITLE15=the crew feat. neo - back in town (radio edit)
TTITLE16=dj pedro - the nipple track (in the sax mix)
EXTD=YEAR: 2002
EXTT0=
EXTT1=
EXTT2=
EXTT3=
EXTT4=
EXTT5=
EXTT6=
EXTT7=
EXTT8=
EXTT9=
EXTT10=
EXTT11=
EXTT12=
EXTT13=
EXTT14=
EXTT15=
EXTT16=
PLAYORDER=
